<svg width="578" height="42" viewBox="0 0 578 42" fill="none" xmlns="http://www.w3.org/2000/svg">
<line x1="4.37114e-08" y1="20.5" x2="275" y2="20.5" stroke="#3498DB"/>
<line x1="303" y1="20.5" x2="578" y2="20.5" stroke="#3498DB"/>
<g filter="url(#filter0_dd_20_642)">
<circle cx="289" cy="20" r="14" fill="white"/>
</g>
<path d="M283.273 26.1641C282.539 26.1641 281.88 26.0234 281.297 25.7422C280.714 25.4609 280.216 25.0651 279.805 24.5547C279.398 24.0391 279.086 23.4297 278.867 22.7266C278.654 22.0234 278.547 21.2474 278.547 20.3984V20.2344C278.547 19.3906 278.654 18.6172 278.867 17.9141C279.086 17.2057 279.398 16.5938 279.805 16.0781C280.216 15.5625 280.714 15.1641 281.297 14.8828C281.88 14.6016 282.539 14.4609 283.273 14.4609C284.049 14.4609 284.732 14.6016 285.32 14.8828C285.909 15.1641 286.401 15.5625 286.797 16.0781C287.198 16.5938 287.5 17.2057 287.703 17.9141C287.906 18.6172 288.008 19.3906 288.008 20.2344V20.3984C288.008 21.2474 287.906 22.0234 287.703 22.7266C287.5 23.4297 287.198 24.0391 286.797 24.5547C286.401 25.0651 285.909 25.4609 285.32 25.7422C284.732 26.0234 284.049 26.1641 283.273 26.1641ZM283.273 24.8828C284.029 24.8828 284.638 24.6953 285.102 24.3203C285.57 23.9453 285.914 23.4219 286.133 22.75C286.352 22.0729 286.461 21.2891 286.461 20.3984V20.2188C286.461 19.3333 286.349 18.5573 286.125 17.8906C285.906 17.2188 285.562 16.6953 285.094 16.3203C284.625 15.9401 284.018 15.75 283.273 15.75C282.591 15.75 282.013 15.9401 281.539 16.3203C281.065 16.7005 280.706 17.2266 280.461 17.8984C280.216 18.5651 280.094 19.3385 280.094 20.2188V20.3984C280.094 21.2839 280.216 22.0651 280.461 22.7422C280.706 23.4141 281.065 23.9401 281.539 24.3203C282.013 24.6953 282.591 24.8828 283.273 24.8828ZM289.195 26V25.0156L290.469 24.7969V15.8359L289.195 15.6172V14.6328H294.266C295.094 14.6328 295.792 14.7578 296.359 15.0078C296.932 15.2526 297.367 15.6094 297.664 16.0781C297.961 16.5469 298.109 17.1198 298.109 17.7969C298.109 18.4635 297.964 19.0234 297.672 19.4766C297.385 19.9297 296.977 20.2734 296.445 20.5078C295.914 20.737 295.284 20.8594 294.555 20.875L292.008 20.9219V24.7969L293.281 25.0156V26H289.195ZM296.703 26L294.172 20.3203L295.711 20.3047L297.812 24.8516L298.602 24.9922V26H296.703ZM292.008 19.7109H294.109C294.969 19.7109 295.594 19.5469 295.984 19.2188C296.375 18.8906 296.57 18.4115 296.57 17.7812C296.57 17.1823 296.383 16.7083 296.008 16.3594C295.633 16.0104 295.052 15.8359 294.266 15.8359H292.008V19.7109Z" fill="#373434"/>
<defs>
<filter id="filter0_dd_20_642" x="271" y="0" width="36" height="42" filterUnits="userSpaceOnUse" color-interpolation-filters="sRGB">
<feFlood flood-opacity="0" result="BackgroundImageFix"/>
<feColorMatrix in="SourceAlpha" type="matrix" values="0 0 0 0 0 0 0 0 0 0 0 0 0 0 0 0 0 0 127 0" result="hardAlpha"/>
<feOffset dy="4"/>
<feGaussianBlur stdDeviation="2"/>
<feComposite in2="hardAlpha" operator="out"/>
<feColorMatrix type="matrix" values="0 0 0 0 0.203922 0 0 0 0 0.596078 0 0 0 0 0.858824 0 0 0 0.25 0"/>
<feBlend mode="normal" in2="BackgroundImageFix" result="effect1_dropShadow_20_642"/>
<feColorMatrix in="SourceAlpha" type="matrix" values="0 0 0 0 0 0 0 0 0 0 0 0 0 0 0 0 0 0 127 0" result="hardAlpha"/>
<feOffset dy="-4"/>
<feGaussianBlur stdDeviation="1"/>
<feComposite in2="hardAlpha" operator="out"/>
<feColorMatrix type="matrix" values="0 0 0 0 0.203922 0 0 0 0 0.596078 0 0 0 0 0.858824 0 0 0 0.25 0"/>
<feBlend mode="normal" in2="effect1_dropShadow_20_642" result="effect2_dropShadow_20_642"/>
<feBlend mode="normal" in="SourceGraphic" in2="effect2_dropShadow_20_642" result="shape"/>
</filter>
</defs>
</svg>
